HIERARCHY
ROOT hip
{
	OFFSET 0.000000 0.000000 0.000000 
	CHANNELS 6 Xposition Yposition Zposition Xrotation Zrotation Yrotation
	JOINT abdomen
	{
		OFFSET 0.000000 3.402643 0.000000 
		CHANNELS 3 Xrotation Zrotation Yrotation
		JOINT chest
		{
			OFFSET 0.000000 8.438565 -0.680529 
			CHANNELS 3 Xrotation Zrotation Yrotation
			JOINT neck
			{
				OFFSET 0.000000 10.207942 -0.272212 
				CHANNELS 3 Xrotation Zrotation Yrotation
				JOINT head
				{
					OFFSET 0.000000 3.130431 0.000000 
					CHANNELS 3 Xrotation Zrotation Yrotation
					End Site
					{
						OFFSET 0.000000 3.130435 0.000000 
					}
				}
			}
			JOINT lCollar
			{
				OFFSET 3.470700 6.669187 -0.816635 
				CHANNELS 3 Yrotation Zrotation Xrotation
				JOINT lShldr
				{
					OFFSET 3.198488 0.000000 0.000000 
					CHANNELS 3 Zrotation Yrotation Xrotation
					JOINT lForeArm
					{
						OFFSET 10.139888 0.000000 0.000000 
						CHANNELS 3 Yrotation Zrotation Xrotation
						JOINT lHand
						{
							OFFSET 8.370511 0.000000 0.000000 
							CHANNELS 3 Zrotation Yrotation Xrotation
							End Site
							{
								OFFSET 4.083176 0.000000 0.000000 
							}
						}
					}
				}
			}
			JOINT rCollar
			{
				OFFSET -3.470700 6.669187 -0.816635 
				CHANNELS 3 Yrotation Zrotation Xrotation
				JOINT rShldr
				{
					OFFSET -3.198488 0.000000 0.000000 
					CHANNELS 3 Zrotation Yrotation Xrotation
					JOINT rForeArm
					{
						OFFSET -10.139888 0.000000 0.000000 
						CHANNELS 3 Yrotation Zrotation Xrotation
						JOINT rHand
						{
							OFFSET -8.370511 0.000000 0.000000 
							CHANNELS 3 Zrotation Yrotation Xrotation
							End Site
							{
								OFFSET -4.083176 0.000000 0.000000 
							}
						}
					}
				}
			}
		}
	}
	JOINT lThigh
	{
		OFFSET 5.308129 -1.633274 1.361059 
		CHANNELS 3 Xrotation Zrotation Yrotation
		JOINT lShin
		{
			OFFSET -2.041588 -20.007561 0.000000 
			CHANNELS 3 Xrotation Zrotation Yrotation
			JOINT lFoot
			{
				OFFSET 0.000000 -19.190928 -1.224953 
				CHANNELS 3 Xrotation Yrotation Zrotation
				End Site
				{
					OFFSET 0.000000 -2.449906 4.627600 
				}
			}
		}
	}
	JOINT rThigh
	{
		OFFSET -5.308129 -1.633274 1.361059 
		CHANNELS 3 Xrotation Zrotation Yrotation
		JOINT rShin
		{
			OFFSET 2.041588 -20.007561 0.000000 
			CHANNELS 3 Xrotation Zrotation Yrotation
			JOINT rFoot
			{
				OFFSET 0.000000 -19.190928 -1.224953 
				CHANNELS 3 Xrotation Yrotation Zrotation
				End Site
				{
					OFFSET 0.000000 -2.449906 4.627600 
				}
			}
		}
	}
}
MOTION
Frames: 20
Frame Time: 0.016667
-0.058736 52.815262 0.209221 -11.362436 -1.434137 2.539733 31.317728 2.989605 1.496557 -1.009495 3.202696 -1.309857 -0.415942 -2.671858 -0.099985 19.824667 -3.493575 -4.804438 -10.682064 -12.183303 -0.635063 -60.987141 9.406569 -14.880278 -22.703520 -5.000000 38.207062 -10.998708 1.279391 4.417228 11.728779 12.339334 -0.647274 58.628540 -6.114382 -10.451971 21.727674 5.000000 29.933765 18.745863 -18.032516 -0.482641 15.431981 11.704829 4.289690 10.240892 -4.287064 -0.910243 -10.575593 8.010365 -4.496000 19.700462 -5.681836 -4.203036 3.099830 3.224185 0.205613 -9.057982 -12.225521 9.142501 
-0.058663 52.815250 0.209198 -11.362436 -1.434137 2.539733 31.317728 2.989605 1.496557 -1.009495 3.202696 -1.309857 -0.415942 -2.671858 -0.099985 19.824667 -3.493575 -4.804438 -10.682064 -12.183303 -0.635063 -60.987141 9.406569 -14.880278 -22.703520 -5.000000 38.207062 -10.998708 1.279391 4.417228 11.728779 12.339334 -0.647274 58.628540 -6.114382 -10.451971 21.727674 5.000000 29.933765 18.745863 -18.032516 -0.482641 15.431983 11.704824 4.289690 10.230063 -4.286938 -0.919237 -10.560836 7.999798 -4.512162 19.700462 -5.681835 -4.203035 3.099830 3.224185 0.205613 -9.057986 -12.225516 9.142503 
0.028388 52.811340 0.178579 -11.421708 -1.268360 2.461415 31.595564 2.826985 1.419997 -0.978934 3.261317 -1.300151 -0.553127 -2.660743 -0.091799 19.813339 -3.494506 -4.618048 -10.662420 -12.173550 -0.634560 -60.950157 9.144219 -14.665149 -22.805927 -5.000000 38.163017 -10.800027 1.182608 4.516893 11.788664 12.269075 -0.653077 58.613297 -5.900747 -10.272760 21.751232 5.000000 29.714821 18.582092 -18.070322 -0.710847 15.629570 11.725610 4.390063 9.968305 -5.000533 -1.026266 -10.525366 7.804102 -3.960045 19.569059 -5.976404 -4.236634 3.436807 3.230606 0.217940 -8.872873 -11.932088 8.939195 
0.173423 52.804829 0.127584 -11.505413 -0.995267 2.334311 32.056290 2.575641 1.296762 -0.937253 3.349257 -1.260630 -0.787979 -2.639973 -0.085073 19.795584 -3.505686 -4.315287 -10.623248 -12.163798 -0.634058 -60.890728 8.718739 -14.316289 -22.978039 -5.000000 38.091328 -10.470904 1.004684 4.670782 11.885185 12.171538 -0.648020 58.582081 -5.554149 -9.966813 21.797661 5.000000 29.341311 18.318066 -18.143328 -1.086543 15.932281 11.754987 4.536339 9.567913 -6.142759 -1.214056 -10.441808 7.508933 -3.035527 19.348526 -6.433337 -4.330768 3.949560 3.206411 0.281036 -8.564823 -11.475358 8.560831 
0.322654 52.801586 0.066935 -11.520700 -0.683078 2.226637 32.467190 2.281254 1.151435 -0.887221 3.427407 -1.250920 -0.974450 -2.608088 -0.070160 19.770353 -3.516606 -4.050918 -10.615326 -12.142495 -0.644491 -60.816803 8.263061 -13.927775 -23.187128 -5.000000 37.934910 -10.190134 0.843901 4.849320 11.980226 12.124790 -0.634099 58.498123 -5.176854 -9.612967 21.892244 5.000000 28.906408 18.118898 -18.228489 -1.455905 16.177025 11.629000 4.717398 9.104033 -7.057231 -1.364279 -10.321639 7.210963 -2.322251 19.016985 -6.961188 -4.480302 4.607379 3.190760 0.333669 -8.400178 -10.994578 8.269208 
0.488668 52.811367 -0.032302 -11.239119 -0.224443 2.207014 32.697784 1.860761 0.910321 -0.804160 3.476171 -1.329504 -0.985181 -2.518269 -0.064003 19.724689 -3.517066 -3.943100 -10.722410 -12.113223 -0.640927 -60.718552 7.725506 -13.428871 -23.526766 -5.000000 37.465664 -10.075297 0.702775 5.062811 12.050593 12.300327 -0.643172 58.143700 -4.699902 -9.048100 22.246067 5.000000 28.166636 18.141499 -18.308449 -1.743973 16.091545 10.907053 4.959750 8.512688 -6.981926 -1.329766 -10.126267 6.971176 -2.266077 18.111761 -7.626206 -4.789606 5.765427 3.110601 0.407616 -8.685235 -10.716105 8.218162 
0.654679 52.821117 -0.131537 -10.957810 0.234203 2.197287 32.930550 1.449783 0.672444 -0.721817 3.524918 -1.407478 -0.995883 -2.418793 -0.059302 19.669914 -3.527258 -3.835883 -10.829494 -12.083948 -0.639416 -60.622253 7.187078 -12.931370 -23.875359 -5.000000 36.997688 -9.961473 0.562493 5.285237 12.130645 12.466112 -0.653844 57.801369 -4.215480 -8.490603 22.598192 5.000000 27.426653 18.159456 -18.403980 -2.017246 16.012953 10.204384 5.197973 7.891181 -6.927921 -1.285720 -9.933455 6.709398 -2.229448 17.222420 -8.298910 -5.100066 6.918988 3.012751 0.478667 -8.970571 -10.468694 8.164606 
0.847695 52.812653 -0.261245 -10.629521 0.400109 2.148521 33.297291 1.388543 0.537587 -0.428430 3.573760 -1.378212 -1.329184 -2.337170 -0.041633 19.517078 -3.459170 -3.806038 -11.014592 -12.044909 -0.637401 -60.544991 6.343438 -12.370775 -24.424332 -5.000000 36.181683 -10.060558 0.488017 5.765188 11.938025 12.512852 -0.665697 57.452579 -3.286233 -7.673431 23.101669 5.000000 26.484737 18.266743 -18.346014 -2.336382 15.465261 9.764745 5.195609 8.148584 -6.852971 -1.296970 -10.258110 6.698919 -2.206632 15.861073 -8.765923 -5.242891 8.741398 2.983964 0.545895 -9.452289 -10.364579 8.301769 
1.047462 52.799610 -0.398570 -10.294693 0.487956 2.089934 33.704834 1.408520 0.439596 -0.084795 3.612855 -1.329455 -1.740547 -2.255545 -0.024373 19.343996 -3.361768 -3.795704 -11.219111 -11.996115 -0.634882 -60.472336 5.426395 -11.786072 -25.035267 -5.000000 35.286331 -10.210532 0.424851 6.323637 11.674704 12.542150 -0.667220 57.110073 -2.248893 -6.802791 23.652391 5.000000 25.481960 18.412947 -18.258333 -2.687791 14.778625 9.391725 5.119909 8.609284 -6.766699 -1.307762 -10.716055 6.791455 -2.147326 14.398890 -9.206517 -5.356853 10.738803 2.966346 0.653300 -9.949950 -10.326681 8.514808 
1.253507 52.786572 -0.570901 -9.915087 0.478229 1.982516 34.230301 1.557062 0.355481 0.237968 3.661697 -1.309958 -2.083482 -2.222198 0.000191 19.130873 -3.272877 -4.099050 -11.294329 -11.919998 -0.621488 -60.467030 4.366349 -11.044066 -25.689983 -5.000000 34.229088 -10.159508 0.259906 6.937494 11.496336 12.505119 -0.655865 56.787243 -1.048736 -5.728367 24.267492 5.000000 24.239399 18.516676 -18.202055 -2.997728 13.929366 9.117892 4.996186 9.232742 -6.736138 -1.376386 -11.174630 6.981098 -2.093079 12.629747 -9.595456 -5.445511 13.055079 3.006076 0.796367 -10.485547 -10.376089 8.694394 
1.468976 52.773544 -0.795752 -9.472372 0.322109 1.787191 34.922867 1.901752 0.318279 0.519654 3.720274 -1.329462 -2.298710 -2.259362 0.015681 18.856653 -3.201311 -4.870944 -11.185501 -11.793221 -0.614948 -60.541054 3.080888 -10.055146 -26.411932 -5.000000 32.915226 -9.812611 -0.081569 7.633801 11.455566 12.358838 -0.648285 56.495373 0.394003 -4.350020 24.980900 5.000000 22.615980 18.578991 -18.187082 -3.266403 12.846474 8.991412 4.742527 10.129388 -6.784758 -1.467008 -11.666062 7.430564 -1.937595 10.418674 -9.950186 -5.546444 15.855880 3.171864 1.008244 -11.037077 -10.411242 8.923385 
1.684444 52.760521 -1.020601 -9.018826 0.165952 1.591818 35.634121 2.243964 0.292845 0.810440 3.778842 -1.369117 -2.513566 -2.297985 0.021522 18.580544 -3.129322 -5.643396 -11.066926 -11.666445 -0.608404 -60.642570 1.803282 -9.069659 -27.129110 -5.000000 31.601728 -9.484713 -0.430003 8.325967 11.405055 12.212559 -0.638636 56.252110 1.834637 -2.985086 25.682323 5.000000 21.002388 18.645176 -18.178053 -3.549909 11.768671 8.862475 4.511885 11.010571 -6.825233 -1.565595 -12.150485 7.785108 -1.814191 8.209916 -10.299602 -5.633730 18.660543 3.318493 1.226676 -11.580688 -10.443465 9.156492 
1.898444 52.760521 -1.304116 -8.357644 0.097641 1.015640 36.439079 2.418102 0.172224 1.189792 3.837559 -1.144160 -2.875675 -2.304721 0.042279 18.330736 -2.987137 -6.728409 -11.056629 -11.617684 -0.605887 -60.489513 0.436873 -8.060037 -28.200293 -5.000000 29.946295 -8.973100 -0.771899 8.658791 11.316941 12.193055 -0.637628 55.840897 3.728255 -1.212314 26.441532 5.000000 19.087650 18.563133 -18.153255 -3.766563 10.669328 8.551933 4.898468 11.536011 -6.844059 -1.648067 -11.976578 8.047646 -1.736403 5.447898 -10.809108 -6.206519 21.699669 3.561270 1.536042 -11.274508 -10.079517 8.986447 
2.112442 52.760555 -1.587629 -7.695013 0.039061 0.439460 37.262951 2.586181 0.050397 1.578525 3.896252 -0.928944 -3.247567 -2.321112 0.064495 18.065405 -2.844556 -7.802694 -11.056102 -11.568924 -0.603369 -60.362068 -0.920059 -7.058127 -29.271490 -5.000000 28.304943 -8.473650 -1.108720 8.984768 11.218951 12.163798 -0.636116 55.491341 5.633333 0.548187 27.178116 5.000000 17.184830 18.481266 -18.129423 -3.986307 9.557032 8.269715 5.275435 12.076730 -6.865571 -1.741568 -11.814936 8.182255 -1.723600 2.703919 -11.325356 -6.774049 24.732212 3.767047 1.842142 -10.950473 -9.773218 8.798131 
2.322651 52.770344 -1.875132 -6.991762 -0.078124 -0.312513 38.187313 2.845574 0.031455 1.930723 3.925650 -0.704031 -3.550450 -2.436980 0.082015 17.659105 -2.791906 -8.418604 -11.030166 -11.693832 -0.619301 -59.958187 -2.246368 -6.092460 -30.506924 -5.000000 26.612211 -8.002783 -1.394158 8.964212 11.316720 12.173552 -0.636619 55.045673 7.601376 2.318634 27.905714 5.000000 15.209149 18.370394 -18.145897 -4.082493 8.484757 8.017499 5.978568 12.524514 -6.845171 -1.783984 -11.517129 8.293954 -1.676669 -0.010327 -11.601178 -7.971024 27.414433 3.844414 2.106856 -10.594342 -9.759591 8.761705 
2.530330 52.786633 -2.165314 -6.254648 -0.244087 -1.201203 39.181252 3.146779 0.060268 2.253945 3.925723 -0.498651 -3.814394 -2.601128 0.106834 17.149006 -2.809064 -8.712173 -10.983962 -11.927889 -0.631372 -59.373619 -3.547540 -5.166125 -31.862902 -5.000000 24.881435 -7.544610 -1.649425 8.690505 11.551538 12.212559 -0.638636 54.562962 9.616958 4.067068 28.612925 5.000000 13.195676 18.240168 -18.202028 -4.084338 7.447579 7.809773 6.909571 12.862754 -6.834194 -1.845839 -11.135080 8.289036 -1.673199 -2.695335 -11.743020 -9.618804 29.887651 3.830023 2.338379 -10.257985 -9.982909 8.780887 
2.735981 52.804882 -2.452958 -5.522713 -0.400132 -2.060633 40.205494 3.474272 0.126211 2.575798 3.935529 -0.312756 -4.088265 -2.803898 0.137491 16.642153 -2.845408 -9.005745 -10.957797 -12.200952 -0.647503 -58.748631 -4.895793 -4.208558 -33.154102 -5.000000 23.219980 -7.000288 -1.931283 8.422318 11.805891 12.251567 -0.640652 54.089508 11.649357 5.817371 29.286993 5.000000 11.205630 18.067142 -18.243382 -4.100228 6.363513 7.643151 7.837978 13.272556 -6.765620 -1.879480 -10.672745 8.204119 -1.704877 -5.173820 -11.836802 -11.478804 32.028728 3.759352 2.530832 -10.020280 -10.076767 8.911877 
2.933496 52.830948 -2.730392 -4.827252 -0.536467 -2.802886 41.452194 3.885818 0.348807 2.859673 3.935531 -0.244419 -4.341991 -3.115801 0.164921 16.153660 -3.007318 -9.251576 -10.942988 -12.600783 -0.668141 -57.894684 -6.433682 -3.129348 -34.223785 -5.000000 21.759581 -6.070921 -2.360087 8.154070 12.118954 12.300328 -0.643172 53.452160 13.702031 7.534734 29.907507 5.000000 9.240456 17.743631 -18.263727 -4.131540 5.218018 7.502743 8.751764 13.829870 -6.629494 -1.900493 -10.122808 8.057641 -1.835277 -7.020038 -11.596621 -14.046609 32.983700 3.642045 2.580887 -10.080435 -9.649634 9.462827 
3.131012 52.856976 -3.007840 -4.128141 -0.672532 -3.555015 42.681099 4.308072 0.573607 3.153960 3.945300 -0.166340 -4.606138 -3.435899 0.203456 15.677948 -3.178577 -9.497482 -10.938108 -13.000615 -0.690944 -57.073895 -7.988787 -2.069267 -35.292580 -5.000000 20.315725 -5.128731 -2.780255 7.893133 12.422364 12.358838 -0.648285 52.868580 15.773502 9.246576 30.492857 5.000000 7.298195 17.420961 -18.294401 -4.168632 4.070443 7.381617 9.668054 14.383311 -6.481845 -1.898489 -9.581634 7.915284 -1.917781 -8.886694 -11.425231 -16.632236 33.977448 3.524772 2.602953 -10.103214 -9.253932 9.968328 
3.324949 52.859550 -3.254120 -3.355690 -0.730537 -4.111741 43.907787 4.837553 0.884856 3.422086 3.925751 -0.214985 -4.889708 -3.844357 0.245493 15.085318 -3.359644 -9.694708 -10.933516 -13.410196 -0.712085 -56.178871 -9.580950 -0.989068 -36.331860 -5.000000 19.013210 -4.083379 -3.129162 8.039558 12.775441 12.307919 -0.655063 52.261375 17.738031 10.744740 31.053417 4.863061 5.360569 16.934690 -18.309677 -4.215628 2.596558 7.284486 10.430810 15.405054 -6.299008 -2.033647 -9.354396 7.845007 -1.945607 -10.299844 -11.077409 -18.970125 34.087669 3.769083 2.806988 -10.119037 -8.467426 10.510080 
